<!DOCTYPE svg PUBLIC "-//W3C//DTD SVG 20010904//EN" "http://www.w3.org/TR/2001/REC-SVG-20010904/DTD/svg10.dtd">
<svg version="1.0" xmlns="http://www.w3.org/2000/svg" width="163px" height="166px" viewBox="0 0 1630 1660" preserveAspectRatio="xMidYMid meet">
<g id="layer101" fill="#020202" stroke="none">
 <path d="M275 1594 c-5 -1 -23 -5 -39 -9 -42 -9 -154 -120 -167 -166 -25 -83 -18 -93 234 -347 178 -179 244 -239 282 -257 35 -16 85 -58 164 -138 100 -101 113 -118 101 -132 -11 -13 -9 -19 11 -41 l23 -24 -61 -63 c-71 -73 -83 -93 -83 -142 0 -54 25 -99 86 -154 62 -57 109 -76 162 -66 47 9 182 136 182 172 0 21 4 24 33 22 63 -4 78 2 128 48 56 53 79 89 79 128 0 14 16 49 35 78 59 87 95 194 107 322 6 62 8 120 4 130 -10 26 -132 16 -175 -14 -36 -26 -61 -69 -61 -106 0 -34 -25 -82 -49 -95 -40 -21 -67 -12 -106 36 -34 41 -39 44 -54 30 -16 -14 -27 -6 -138 107 -76 76 -127 137 -137 162 -12 28 -85 109 -239 263 -122 123 -231 228 -241 234 -25 13 -68 26 -81 22z"/>
 </g>
<g id="layer102" fill="#eba300" stroke="none">
 <path d="M213 1450 c-84 -79 -89 -70 174 -327 134 -130 239 -224 253 -228 33 -7 367 -340 351 -349 -7 -5 -6 -14 4 -30 45 -69 32 -126 -29 -126 -27 0 -42 -10 -85 -54 -28 -30 -51 -60 -51 -66 0 -6 23 -36 51 -66 64 -67 84 -68 144 -13 35 33 45 48 45 73 0 18 6 40 13 49 18 25 105 49 130 36 28 -16 100 55 94 91 -4 17 5 39 29 71 55 75 102 186 116 271 6 43 9 80 6 83 -3 3 -13 3 -22 -1 -16 -6 -19 -15 -31 -87 -17 -107 -184 -186 -256 -122 -10 10 -26 14 -36 11 -25 -8 -333 301 -360 360 -12 29 -86 108 -239 258 -122 119 -228 216 -235 216 -8 0 -38 -23 -66 -50z"/>
 </g>
<g id="layer103" fill="#c7c5c0" stroke="none">
 <path d="M1426 854 c-9 -8 -16 -28 -16 -44 0 -115 -150 -218 -240 -165 -14 8 -31 17 -38 21 -9 4 -38 -18 -82 -61 -65 -65 -68 -69 -54 -90 44 -68 31 -125 -30 -125 -27 0 -42 -10 -85 -54 -28 -30 -51 -60 -51 -66 0 -23 102 -120 127 -120 37 0 113 76 113 112 0 47 17 67 68 80 38 9 62 26 127 92 93 94 157 205 180 314 24 111 18 144 -19 106z"/>
 </g>

</svg>