<!DOCTYPE svg PUBLIC "-//W3C//DTD SVG 20010904//EN" "http://www.w3.org/TR/2001/REC-SVG-20010904/DTD/svg10.dtd">
<svg version="1.0" xmlns="http://www.w3.org/2000/svg" width="143px" height="179px" viewBox="0 0 1430 1790" preserveAspectRatio="xMidYMid meet">
<g id="layer101" fill="#040302" stroke="none">
 <path d="M485 1709 c-92 -13 -210 -76 -278 -148 -68 -72 -122 -177 -137 -271 -13 -88 -13 -843 1 -893 14 -52 69 -111 116 -125 34 -10 40 -17 50 -55 17 -61 83 -121 149 -135 46 -10 72 -8 140 13 12 4 32 1 45 -5 60 -33 180 -3 231 58 18 22 36 30 73 35 57 8 126 46 153 85 38 54 42 89 42 335 0 224 1 239 18 232 33 -14 120 -17 156 -5 120 39 179 192 115 298 -31 52 -459 467 -526 510 -99 64 -226 90 -348 71z"/>
 </g>
<g id="layer102" fill="#da950a" stroke="none">
 <path d="M454 1596 c-100 -33 -194 -109 -236 -190 -46 -90 -48 -107 -48 -563 0 -420 1 -434 20 -453 26 -26 80 -26 114 1 l26 20 0 -76 c0 -114 29 -155 112 -155 21 0 40 10 64 34 l34 34 34 -34 c39 -39 80 -45 126 -17 37 21 50 52 50 114 l0 50 31 -36 c27 -30 37 -35 76 -35 59 0 98 37 108 101 3 24 5 185 3 357 -2 171 -1 312 1 312 2 0 39 -29 83 -65 89 -73 115 -83 159 -65 56 23 84 88 63 143 -3 8 -112 117 -242 242 -278 268 -307 287 -452 292 -51 1 -101 -3 -126 -11z"/>
 </g>
<g id="layer103" fill="#ffc83d" stroke="none">
 <path d="M454 1596 c-100 -33 -194 -109 -236 -190 -46 -90 -48 -107 -48 -563 0 -420 1 -434 20 -453 26 -26 80 -26 111 -1 24 19 24 23 27 218 4 198 9 226 39 201 10 -8 13 -79 13 -313 0 -333 -4 -315 62 -315 21 0 40 10 64 34 l34 34 0 280 c0 215 3 281 13 284 36 14 37 3 37 -306 0 -222 3 -305 12 -314 30 -30 116 -1 137 45 7 15 11 121 11 292 0 217 3 271 14 280 11 9 18 8 30 -4 14 -14 16 -50 16 -266 l0 -249 44 0 c54 0 92 27 106 78 6 22 10 166 10 349 l0 311 -137 4 c-133 3 -140 4 -193 34 -61 34 -121 105 -139 164 -14 47 -14 107 -1 115 17 10 40 -15 40 -44 1 -36 35 -110 68 -144 53 -56 96 -70 226 -75 l120 -5 88 -73 c97 -81 123 -92 169 -74 56 23 84 88 63 143 -3 8 -112 117 -242 242 -278 268 -307 287 -452 292 -51 1 -101 -3 -126 -11z"/>
 </g>

</svg>