<!DOCTYPE svg PUBLIC "-//W3C//DTD SVG 20010904//EN" "http://www.w3.org/TR/2001/REC-SVG-20010904/DTD/svg10.dtd">
<svg version="1.0" xmlns="http://www.w3.org/2000/svg" width="135px" height="156px" viewBox="0 0 1350 1560" preserveAspectRatio="xMidYMid meet">
<g id="layer101" fill="#050402" stroke="none">
 <path d="M587 1489 c-177 -26 -354 -152 -439 -316 -67 -126 -73 -164 -73 -468 0 -261 1 -272 23 -320 13 -27 35 -63 50 -79 37 -39 118 -76 169 -76 36 0 45 -4 57 -28 22 -42 87 -97 137 -116 39 -15 81 -17 324 -14 270 3 281 4 316 25 55 34 89 73 115 128 24 49 24 54 24 391 0 307 -2 348 -20 418 -62 243 -260 421 -503 455 -87 12 -97 12 -180 0z"/>
 </g>
<g id="layer102" fill="#d99409" stroke="none">
 <path d="M553 1375 c-174 -49 -313 -189 -358 -360 -12 -46 -15 -118 -15 -316 0 -249 1 -257 22 -289 41 -60 71 -75 158 -78 75 -4 79 -5 85 -31 12 -48 45 -89 89 -110 39 -19 60 -21 281 -21 221 0 242 2 281 21 26 12 53 36 66 57 23 36 23 44 25 337 2 318 -4 400 -38 490 -45 120 -164 235 -296 285 -75 29 -225 37 -300 15z"/>
 </g>
<g id="layer103" fill="#ffc83d" stroke="none">
 <path d="M553 1375 c-174 -49 -313 -189 -358 -360 -12 -46 -15 -118 -15 -316 0 -249 1 -257 22 -289 36 -52 71 -73 133 -78 l55 -4 0 105 0 106 -39 11 c-110 29 -156 165 -84 251 42 49 77 59 213 59 l120 0 0 124 c0 98 3 126 15 136 12 10 18 10 30 0 12 -10 15 -39 15 -145 0 -74 -3 -140 -6 -149 -5 -14 -28 -16 -146 -16 -150 0 -184 -8 -205 -52 -25 -49 -19 -93 16 -129 l29 -29 337 0 c360 0 379 2 433 53 80 74 93 256 31 422 -45 120 -164 235 -296 285 -75 29 -225 37 -300 15z"/>
 <path d="M1175 648 c-15 -33 -90 -86 -133 -93 -20 -4 -43 -8 -49 -10 -10 -3 -13 -50 -13 -190 l0 -185 37 0 c53 0 118 35 145 78 21 34 23 51 26 192 2 85 2 172 0 193 -3 35 -4 36 -13 15z"/>
 <path d="M440 422 c0 -105 3 -124 23 -162 27 -52 90 -90 149 -90 l38 0 0 185 0 185 -105 0 -105 0 0 -118z"/>
 <path d="M710 355 l0 -185 105 0 105 0 0 185 0 185 -105 0 -105 0 0 -185z"/>
 </g>

</svg>