<!DOCTYPE svg PUBLIC "-//W3C//DTD SVG 20010904//EN" "http://www.w3.org/TR/2001/REC-SVG-20010904/DTD/svg10.dtd">
<svg version="1.0" xmlns="http://www.w3.org/2000/svg" width="118px" height="183px" viewBox="0 0 1180 1830" preserveAspectRatio="xMidYMid meet">
<g id="layer101" fill="#070603" stroke="none">
 <path d="M485 1709 c-150 -21 -302 -137 -370 -281 -46 -97 -58 -184 -53 -392 3 -166 4 -172 31 -218 33 -57 98 -98 165 -106 35 -4 52 -12 71 -35 14 -17 44 -38 67 -49 l42 -18 -54 -127 c-60 -143 -66 -190 -34 -253 70 -137 256 -132 330 9 16 31 19 33 20 13 0 -12 7 -39 16 -60 37 -89 122 -132 214 -108 60 16 96 46 121 101 17 37 19 76 19 560 0 570 -1 579 -60 701 -61 126 -221 240 -370 264 -72 11 -71 11 -155 -1z"/>
 </g>
<g id="layer102" fill="#d9950b" stroke="none">
 <path d="M454 1596 c-100 -33 -194 -109 -236 -190 -42 -81 -48 -123 -48 -329 l0 -199 29 -29 c29 -29 70 -37 148 -30 17 1 26 -7 37 -32 24 -58 58 -77 138 -77 52 0 69 -3 65 -12 -2 -7 -39 -96 -82 -197 -84 -201 -86 -215 -33 -254 28 -21 58 -19 90 5 10 7 54 107 98 223 45 116 87 216 95 224 7 7 20 11 29 8 13 -5 15 -42 18 -242 l3 -237 28 -24 c36 -30 68 -30 104 0 l28 24 2 474 c1 260 -1 506 -6 545 -18 146 -103 267 -231 327 -54 25 -79 30 -150 33 -51 1 -101 -3 -126 -11z"/>
 </g>
<g id="layer103" fill="#ffc83d" stroke="none">
 <path d="M454 1596 c-100 -33 -194 -109 -236 -190 -42 -81 -48 -123 -48 -328 0 -192 1 -198 24 -224 18 -22 35 -29 80 -34 l56 -6 0 80 c0 81 0 81 -32 96 -96 46 -101 182 -7 232 25 13 55 18 116 18 l83 0 0 106 c0 104 0 105 23 102 21 -3 22 -6 22 -128 l0 -125 -107 -5 c-90 -4 -111 -8 -127 -25 -32 -33 -31 -85 1 -115 21 -19 34 -20 267 -20 279 0 304 6 357 76 27 35 29 44 29 123 0 75 -4 94 -31 151 -39 84 -111 155 -194 194 -54 25 -79 30 -150 33 -51 1 -101 -3 -126 -11z"/>
 <path d="M940 1045 c-47 -51 -76 -59 -215 -65 l-130 -5 -5 -145 -5 -145 -79 -184 c-85 -201 -87 -214 -34 -254 28 -21 58 -19 90 5 10 7 54 107 98 223 45 116 87 216 95 224 7 7 20 11 29 8 13 -5 15 -42 18 -242 l3 -237 28 -24 c36 -30 68 -30 104 0 l28 24 3 329 c2 180 2 370 0 421 l-3 94 -25 -27z"/>
 <path d="M380 879 l0 -101 34 -34 c29 -29 41 -34 80 -34 l46 0 0 135 0 135 -80 0 -80 0 0 -101z"/>
 </g>

</svg>